<svg width="1176" height="219" viewBox="0 0 1176 219" fill="none" xmlns="http://www.w3.org/2000/svg">
<path d="M306.932 206.809C306.932 205.433 307.681 204.242 308.785 203.591C304.261 199.43 301.452 194.617 301.452 187.748C301.452 167.5 326.103 163.513 326.103 154.199C326.103 163.513 350.754 167.5 350.754 187.748C350.754 194.616 347.946 199.429 343.422 203.59C344.526 204.241 345.274 205.431 345.274 206.809C345.274 208.808 343.71 210.425 341.74 210.532V230.537C343.71 230.644 345.274 232.261 345.274 234.26C345.274 236.26 343.71 237.879 341.74 237.985V248.43H387.952V233.195H393.256V222.705H393.695C384.345 213.589 378.618 202.993 378.618 188.201C378.618 146.447 424.755 135.124 433.274 117.57C431.778 117.942 430.236 118.144 428.682 118.144C422.874 118.144 417.45 115.555 413.801 111.041C412.532 109.468 411.52 107.716 410.795 105.833L410.683 105.54L410.946 105.711C414.016 107.703 417.581 108.756 421.256 108.756C425.567 108.756 429.792 107.257 433.154 104.534C439.54 99.3558 441.861 90.716 438.928 83.0342L438.816 82.7422L439.078 82.9125C440.766 84.0088 442.267 85.3637 443.539 86.939C446.755 90.9155 448.232 95.907 447.696 100.995C447.162 106.083 444.678 110.658 440.706 113.877C439.169 115.122 437.447 116.1 435.625 116.813C443.158 134.806 490.624 145.85 490.624 188.2C490.624 202.992 484.899 213.589 475.548 222.705H475.988V233.194H481.29V248.429H527.503V237.938C525.531 237.831 523.962 236.213 523.962 234.215C523.962 232.216 525.531 230.598 527.503 230.492V210.485C525.531 210.379 523.962 208.761 523.962 206.763C523.962 205.387 524.714 204.197 525.82 203.547C521.297 199.387 518.487 194.574 518.487 187.705C518.487 167.457 543.141 163.467 543.141 154.153C543.141 163.466 567.789 167.457 567.789 187.705C567.789 194.575 564.979 199.387 560.455 203.547C561.56 204.197 562.31 205.387 562.31 206.763C562.31 208.761 560.742 210.378 558.773 210.485V230.492C560.742 230.599 562.31 232.217 562.31 234.215C562.31 236.212 560.742 237.831 558.773 237.938V248.429H558.795V444.086H528.087V290.979C528.087 279.897 512.229 272.636 512.229 272.636C512.229 272.636 496.372 279.896 496.372 290.979V444.086H456.857V279.564C456.857 264.025 434.62 253.845 434.62 253.845C434.62 253.845 412.385 264.025 412.385 279.564V444.086H372.87V290.979C372.87 279.897 357.013 272.636 357.013 272.636C357.013 272.636 341.155 279.896 341.155 290.979V444.086H310.447V248.43H310.467V237.985C308.498 237.879 306.932 236.26 306.932 234.26C306.932 232.261 308.498 230.643 310.467 230.537V210.533C308.499 210.426 306.932 208.808 306.932 206.809Z" fill="#D2DED7"/>
<path d="M-25.2687 152.416C-25.2687 150.726 -24.3495 149.264 -22.9937 148.465C-28.5499 143.355 -31.9991 137.446 -31.9991 129.012C-31.9991 104.152 -1.7247 99.2564 -1.7247 87.8213C-1.7247 99.2564 28.5497 104.152 28.5497 129.012C28.5497 137.445 25.1013 143.355 19.5443 148.464C20.9001 149.263 21.8193 150.724 21.8193 152.416C21.8193 154.87 19.8981 156.855 17.479 156.987V181.55C19.8981 181.68 21.8193 183.666 21.8193 186.12C21.8193 188.575 19.8981 190.563 17.479 190.694V203.518H74.2324V184.813H80.7462V171.933H81.286C69.8035 160.741 62.7695 147.731 62.7695 129.569C62.7695 78.3033 119.431 64.4006 129.894 42.8474C128.056 43.3049 126.163 43.5525 124.254 43.5525C117.122 43.5525 110.46 40.3738 105.979 34.8317C104.42 32.9001 103.177 30.7491 102.287 28.4368L102.149 28.0775L102.472 28.2875C106.242 30.7329 110.621 32.026 115.134 32.026C120.428 32.026 125.617 30.1849 129.746 26.8424C137.589 20.4842 140.44 9.87624 136.837 0.444431L136.7 0.0859375L137.022 0.295058C139.094 1.64112 140.938 3.3047 142.501 5.23886C146.45 10.1212 148.263 16.2497 147.606 22.4969C146.949 28.7441 143.899 34.3614 139.021 38.3133C137.134 39.8421 135.019 41.043 132.781 41.9179C142.032 64.0105 200.326 77.5701 200.326 129.568C200.326 147.729 193.295 160.74 181.811 171.933H182.351V184.812H188.863V203.518H245.618V190.636C243.196 190.505 241.269 188.518 241.269 186.065C241.269 183.611 243.196 181.624 245.618 181.494V156.93C243.196 156.799 241.269 154.813 241.269 152.359C241.269 150.67 242.192 149.208 243.55 148.41C237.996 143.303 234.545 137.393 234.545 128.959C234.545 104.1 264.823 99.2001 264.823 87.7642C264.823 99.1993 295.094 104.1 295.094 128.959C295.094 137.394 291.643 143.303 286.087 148.41C287.444 149.209 288.365 150.67 288.365 152.359C288.365 154.812 286.44 156.798 284.021 156.93V181.494C286.44 181.626 288.365 183.612 288.365 186.065C288.365 188.517 286.44 190.504 284.021 190.636V203.518H284.048V443.745H246.335V255.76C246.335 242.153 226.86 233.238 226.86 233.238C226.86 233.238 207.386 242.152 207.386 255.76V443.745H158.856V241.744C158.856 222.665 131.547 210.167 131.547 210.167C131.547 210.167 104.239 222.666 104.239 241.744V443.745H55.71V255.76C55.71 242.153 36.236 233.238 36.236 233.238C36.236 233.238 16.7602 242.152 16.7602 255.76V443.745H-20.9524V203.518H-20.9276V190.694C-23.3459 190.564 -25.2696 188.576 -25.2696 186.12C-25.2696 183.666 -23.3459 181.679 -20.9276 181.55V156.988C-23.345 156.857 -25.2687 154.87 -25.2687 152.416Z" fill="#D2DED7"/>
<path d="M868.646 206.809C868.646 205.433 867.897 204.242 866.793 203.591C871.317 199.43 874.126 194.617 874.126 187.748C874.126 167.5 849.475 163.513 849.475 154.199C849.475 163.513 824.824 167.5 824.824 187.748C824.824 194.616 827.632 199.429 832.157 203.59C831.053 204.241 830.304 205.431 830.304 206.809C830.304 208.808 831.868 210.425 833.838 210.532V230.537C831.868 230.644 830.304 232.261 830.304 234.26C830.304 236.26 831.868 237.879 833.838 237.985V248.43H787.626V233.195H782.323V222.705H781.883C791.233 213.589 796.96 202.993 796.96 188.201C796.96 146.447 750.823 135.124 742.304 117.57C743.8 117.942 745.342 118.144 746.896 118.144C752.704 118.144 758.128 115.555 761.777 111.041C763.046 109.468 764.058 107.716 764.783 105.833L764.895 105.54L764.632 105.711C761.562 107.703 757.997 108.756 754.322 108.756C750.011 108.756 745.786 107.257 742.424 104.534C736.038 99.3558 733.717 90.716 736.65 83.0342L736.762 82.7422L736.5 82.9125C734.812 84.0088 733.311 85.3637 732.039 86.939C728.823 90.9155 727.346 95.907 727.882 100.995C728.416 106.083 730.9 110.658 734.872 113.877C736.409 115.122 738.131 116.1 739.953 116.813C732.421 134.806 684.954 145.85 684.954 188.2C684.954 202.992 690.68 213.589 700.03 222.705H699.59V233.194H694.288V248.429H648.075V237.938C650.047 237.831 651.616 236.213 651.616 234.215C651.616 232.216 650.047 230.598 648.075 230.492V210.485C650.047 210.379 651.616 208.761 651.616 206.763C651.616 205.387 650.865 204.197 649.759 203.547C654.281 199.387 657.091 194.574 657.091 187.705C657.091 167.457 632.437 163.467 632.437 154.153C632.437 163.466 607.789 167.457 607.789 187.705C607.789 194.575 610.599 199.387 615.123 203.547C614.018 204.197 613.268 205.387 613.268 206.763C613.268 208.761 614.836 210.378 616.805 210.485V230.492C614.836 230.599 613.268 232.217 613.268 234.215C613.268 236.212 614.836 237.831 616.805 237.938V248.429H616.783V444.086H647.491V290.979C647.491 279.897 663.349 272.636 663.349 272.636C663.349 272.636 679.206 279.896 679.206 290.979V444.086H718.721V279.564C718.721 264.025 740.958 253.845 740.958 253.845C740.958 253.845 763.193 264.025 763.193 279.564V444.086H802.708V290.979C802.708 279.897 818.565 272.636 818.565 272.636C818.565 272.636 834.424 279.896 834.424 290.979V444.086H865.131V248.43H865.111V237.985C867.08 237.879 868.646 236.26 868.646 234.26C868.646 232.261 867.08 230.643 865.111 230.537V210.533C867.079 210.426 868.646 208.808 868.646 206.809Z" fill="#D2DED7"/>
<path d="M1200.85 152.416C1200.85 150.726 1199.93 149.264 1198.57 148.465C1204.13 143.355 1207.58 137.446 1207.58 129.012C1207.58 104.152 1177.3 99.2564 1177.3 87.8213C1177.3 99.2564 1147.03 104.152 1147.03 129.012C1147.03 137.445 1150.48 143.355 1156.03 148.464C1154.68 149.263 1153.76 150.724 1153.76 152.416C1153.76 154.87 1155.68 156.855 1158.1 156.987V181.55C1155.68 181.68 1153.76 183.666 1153.76 186.12C1153.76 188.575 1155.68 190.563 1158.1 190.694V203.518H1101.35V184.813H1094.83V171.933H1094.29C1105.77 160.741 1112.81 147.731 1112.81 129.569C1112.81 78.3033 1056.15 64.4006 1045.68 42.8474C1047.52 43.3049 1049.42 43.5525 1051.32 43.5525C1058.46 43.5525 1065.12 40.3738 1069.6 34.8317C1071.16 32.9001 1072.4 30.7491 1073.29 28.4368L1073.43 28.0775L1073.11 28.2875C1069.34 30.7329 1064.96 32.026 1060.44 32.026C1055.15 32.026 1049.96 30.1849 1045.83 26.8424C1037.99 20.4842 1035.14 9.87624 1038.74 0.444431L1038.88 0.0859375L1038.56 0.295058C1036.48 1.64112 1034.64 3.3047 1033.08 5.23886C1029.13 10.1212 1027.31 16.2497 1027.97 22.4969C1028.63 28.7441 1031.68 34.3614 1036.56 38.3133C1038.44 39.8421 1040.56 41.043 1042.8 41.9179C1033.55 64.0105 975.252 77.5701 975.252 129.568C975.252 147.729 982.284 160.74 993.767 171.933H993.227V184.812H986.715V203.518H929.96V190.636C932.382 190.505 934.309 188.518 934.309 186.065C934.309 183.611 932.382 181.624 929.96 181.494V156.93C932.382 156.799 934.309 154.813 934.309 152.359C934.309 150.67 933.386 149.208 932.028 148.41C937.582 143.303 941.033 137.393 941.033 128.959C941.033 104.1 910.755 99.2001 910.755 87.7642C910.755 99.1993 880.484 104.1 880.484 128.959C880.484 137.394 883.935 143.303 889.491 148.41C888.134 149.209 887.213 150.67 887.213 152.359C887.213 154.812 889.138 156.798 891.557 156.93V181.494C889.138 181.626 887.213 183.612 887.213 186.065C887.213 188.517 889.138 190.504 891.557 190.636V203.518H891.53V443.745H929.243V255.76C929.243 242.153 948.719 233.238 948.719 233.238C948.719 233.238 968.193 242.152 968.193 255.76V443.745H1016.72V241.744C1016.72 222.665 1044.03 210.167 1044.03 210.167C1044.03 210.167 1071.34 222.666 1071.34 241.744V443.745H1119.87V255.76C1119.87 242.153 1139.34 233.238 1139.34 233.238C1139.34 233.238 1158.82 242.152 1158.82 255.76V443.745H1196.53V203.518H1196.51V190.694C1198.92 190.564 1200.85 188.576 1200.85 186.12C1200.85 183.666 1198.92 181.679 1196.51 181.55V156.988C1198.92 156.857 1200.85 154.87 1200.85 152.416Z" fill="#D2DED7"/>
</svg>
